<?xml version="1.0" encoding="UTF-8" standalone="no"?>
<!-- Created with Inkscape (http://www.inkscape.org/) -->

<svg
   width="422"
   height="322"
   viewBox="0 0 111.65416 85.195833"
   version="1.1"
   id="svg1"
   inkscape:version="1.3 (0e150ed6c4, 2023-07-21)"
   sodipodi:docname="drawing_r=3.svg"
   xmlns:inkscape="http://www.inkscape.org/namespaces/inkscape"
   xmlns:sodipodi="http://sodipodi.sourceforge.net/DTD/sodipodi-0.dtd"
   xmlns="http://www.w3.org/2000/svg"
   xmlns:svg="http://www.w3.org/2000/svg">
  <sodipodi:namedview
     id="namedview1"
     pagecolor="#ffffff"
     bordercolor="#000000"
     borderopacity="0.25"
     inkscape:showpageshadow="2"
     inkscape:pageopacity="0.0"
     inkscape:pagecheckerboard="0"
     inkscape:deskcolor="#d1d1d1"
     inkscape:document-units="px"
     inkscape:zoom="1.4778115"
     inkscape:cx="219.91979"
     inkscape:cy="160.03394"
     inkscape:window-width="2560"
     inkscape:window-height="1369"
     inkscape:window-x="-8"
     inkscape:window-y="-8"
     inkscape:window-maximized="1"
     inkscape:current-layer="svg1"
     showguides="true" />
  <defs
     id="defs1">
    <rect
       x="469.61334"
       y="305.85767"
       width="0"
       height="43.307281"
       id="rect27" />
    <clipPath
       clipPathUnits="userSpaceOnUse"
       id="clipPath36">
      <path
         id="path36"
         style="fill:#ff0000;fill-opacity:1;fill-rule:nonzero;stroke:none;stroke-width:0.264583"
         d="m 30.184204,48.095773 v 0.128156 c 0.0043,5.3e-4 0.0086,0.0011 0.01291,0.0016 0.06403,0.0059 0.128503,0.0089 0.192755,0.01085 0.06968,0.0063 0.138922,0.01336 0.208772,0.01757 0.07214,0.0011 0.14387,0.0098 0.21549,0.01757 0.05772,0.006 0.115654,0.0082 0.173633,0.0098 0.06418,0.0016 0.128563,0.0016 0.192754,0.0021 0.06121,-7.94e-4 0.121983,2.65e-4 0.182933,0.0062 0.05548,0.0059 0.111207,0.0096 0.166915,0.01241 0.04759,0.0021 0.095,0.0031 0.142629,0.0036 0.04993,5.29e-4 0.09993,5.29e-4 0.14986,5.29e-4 0.05065,8.5e-5 0.10128,5.29e-4 0.151929,5.29e-4 0.04093,-0.005 0.08516,0.0071 0.125574,-0.0016 0.02868,-0.0052 0.0569,-0.01519 0.08475,-0.02429 0.04103,-0.02167 0.08576,-0.03408 0.130741,-0.04444 0.04999,-0.01537 0.10172,-0.02347 0.15348,-0.02997 0.05243,-0.006 0.10541,-0.0083 0.158131,-0.0098 0.04674,-0.0011 0.09329,-0.0013 0.140041,-0.0016 0.04513,-1.96e-4 0.09027,-5.3e-4 0.135393,-5.3e-4 0.0019,-2e-6 0.0034,0 0.0052,0 -0.0574,-0.02162 -0.0937,-0.05826 -0.109553,-0.0987 z m 5.85339,0 c 0.02106,0.01233 0.04049,0.02664 0.04857,0.04289 0.02323,0.04674 0.04853,0.09926 0.04083,0.150894 -0.01572,0.105818 -0.106735,0.139737 -0.190685,0.155546 -0.08983,0.0092 -0.180517,0.01236 -0.270269,0.02273 -0.07838,0.0072 -0.157105,0.01246 -0.235644,0.01757 -0.07491,7.7e-5 -0.149365,1.67e-4 -0.224276,5.29e-4 -0.07362,5.3e-4 -0.147574,0.0011 -0.221176,0.0031 -0.07021,0.0021 -0.140282,0.0053 -0.210323,0.01085 -0.06591,0.0056 -0.13168,0.01087 -0.197918,0.0083 -0.06411,6.9e-5 -0.12813,1e-4 -0.192239,5.29e-4 -0.04214,5.29e-4 -0.0845,7.94e-4 -0.126606,0.0026 -0.03567,0.0019 -0.07113,0.0042 -0.106455,0.0098 -0.05027,0.0075 -0.100531,0.01151 -0.15141,0.0093 H 33.865635 33.731274 33.596916 33.462558 33.3282 33.192807 c -0.04679,0 -0.09377,-5e-6 -0.14056,0 -0.04966,6e-6 -0.09917,-3.1e-5 -0.148828,0 -0.04463,3.5e-5 -0.08921,-1.93e-4 -0.133842,0 -0.04408,1.99e-4 -0.08821,0.0011 -0.132292,0.0021 -0.04227,0.0013 -0.08454,0.0026 -0.126608,0.0072 -0.04126,0.0049 -0.08218,0.01193 -0.121957,0.02429 -0.03484,0.007 -0.0665,0.02262 -0.09922,0.03617 -0.05175,0.01696 -0.103748,0.03337 -0.158128,0.03927 -0.05206,0.0037 -0.104399,0.0026 -0.15658,0.0026 -0.05084,-1.3e-5 -0.101606,8.5e-5 -0.152445,0 -0.05098,-1.03e-4 -0.101984,-2.9e-5 -0.152964,-5.29e-4 -0.05198,-5.29e-4 -0.104132,-0.0019 -0.156062,-0.0041 -0.06104,-0.0031 -0.122145,-0.0075 -0.182935,-0.01394 -0.05068,-0.0051 -0.100989,-0.0043 -0.151927,-0.0041 -0.06663,-5.3e-4 -0.133368,-0.0011 -0.199988,-0.0026 -0.06697,-0.0019 -0.133855,-0.0043 -0.200506,-0.01138 -0.06629,-0.0072 -0.13267,-0.0159 -0.19947,-0.01654 -0.06659,-0.004 -0.133172,-0.0096 -0.199472,-0.01707 -0.06511,-0.0021 -0.129942,-0.0054 -0.19482,-0.01085 v 5.662705 h 6.830592 v -6.127888 z m -0.130225,0.01291 c -0.0032,7.94e-4 -0.0057,0.0016 -0.0088,0.0026 7.93e-4,-7.4e-5 0.0013,7.6e-5 0.0021,0 0.0021,-0.0011 0.009,-0.0032 0.0067,-0.0026 z" />
    </clipPath>
    <clipPath
       clipPathUnits="userSpaceOnUse"
       id="clipPath55">
      <path
         id="path56"
         style="fill:#ff0000;fill-opacity:1;fill-rule:nonzero;stroke:none;stroke-width:0.264583"
         d="m 30.293757,48.270954 v 5.777944 h 6.611485 v -5.777944 h -3.438035 c 0.02304,2.64e-4 0.04621,5.29e-4 0.06925,0.0011 0.113861,0.0024 0.227582,0.0086 0.341067,0.0181 0.07423,0.007 0.148632,0.01341 0.221692,0.02894 0.04063,0.0086 0.03188,0.04942 -0.0088,0.04082 -0.05866,-0.01244 -0.11812,-0.01868 -0.177765,-0.02429 -0.0011,0.0043 -0.0029,0.0092 -0.0047,0.01497 -0.0013,0.0042 -0.0086,0.0013 -0.01291,0.0016 -0.0054,2.6e-4 -0.01061,5.3e-4 -0.01601,5.3e-4 -0.0011,7.93e-4 -0.0024,0.0019 -0.0036,0.0026 0.03466,-5.29e-4 0.06925,-0.0021 0.103871,-0.0041 0.04151,-0.0026 0.04397,0.03936 0.0026,0.04186 -0.04052,0.0024 -0.08085,0.0043 -0.121441,0.0047 -0.0186,2.64e-4 -0.03721,2.3e-4 -0.05581,5.29e-4 7.93e-4,0.0034 0.0013,0.0065 0.0016,0.0088 0.0068,-1.27e-4 0.01331,-5.29e-4 0.02016,-5.29e-4 0.0034,-2.9e-5 0.0076,-0.0016 0.01085,0 0.0011,5.29e-4 0.0024,0.0019 0.0036,0.0026 h 5.29e-4 c 0.02167,5.29e-4 0.04346,0.0011 0.06511,0.0021 0.0087,5.3e-4 0.01712,7.94e-4 0.02585,0.0016 0.0037,5.29e-4 0.01077,-0.0016 0.01085,0.0021 9.8e-5,0.0045 -0.0016,0.0084 -0.0041,0.01241 0.0046,-10e-6 0.0093,3e-6 0.01394,0 0.0078,1.3e-4 0.01556,2.54e-4 0.02326,5.3e-4 0.007,2.03e-4 0.0343,-0.0024 0.01394,0.01963 -1.17e-4,7.93e-4 -2.17e-4,0.0019 -5.29e-4,0.0026 -7.94e-4,0.0021 -0.0028,0.0029 -0.0052,0.0026 h -5.29e-4 c -0.0038,0.0013 -0.0084,5.3e-4 -0.01291,0 -2.64e-4,0.0011 -5.29e-4,0.0021 -0.0011,0.0031 0.0013,0.0035 0.0021,0.007 0.0031,0.01035 5.29e-4,0.0013 -0.0027,1.1e-5 -0.0041,0 -0.0028,-4.2e-5 -0.0055,4e-5 -0.0083,0 -0.0039,0.0016 -0.0084,7.94e-4 -0.01291,0 -5.3e-4,-8.7e-5 -0.0011,9e-5 -0.0016,0 -0.01119,-4.5e-5 -0.02241,8e-6 -0.03359,0 7.94e-4,0.0019 5.29e-4,0.0037 0,0.0057 0.02859,0.0011 0.05717,0.0024 0.08578,0.0036 0.03388,0.0013 0.06792,0.0021 0.101801,0.0036 0.01797,7.94e-4 0.03576,0.0021 0.05374,0.0026 v -5.29e-4 c 0.02077,2.65e-4 0.02077,0.02156 0,0.02119 -0.0024,-5e-5 -0.0048,8.2e-5 -0.0072,0 -0.0026,0.0021 -0.0062,0.0035 -0.01138,0.0036 -0.01524,5.29e-4 -0.03074,2.41e-4 -0.04599,5.29e-4 -0.03123,2.65e-4 -0.0623,5.29e-4 -0.09354,5.29e-4 -0.03156,1.3e-5 -0.06301,-6.9e-5 -0.09457,0 -0.02663,7.2e-5 -0.05348,1.38e-4 -0.0801,5.29e-4 -0.02558,5.3e-4 -0.0509,0.0011 -0.07648,0.0021 -0.03157,0.0011 -0.0635,0.0019 -0.09508,0.0016 -0.02946,-1.19e-4 -0.05892,1.61e-4 -0.08837,-5.3e-4 -0.02267,-5.29e-4 -0.04502,-0.0016 -0.0677,-0.0026 -0.02005,-7.94e-4 -0.04042,-0.0016 -0.06046,-0.0026 -0.01815,-7.94e-4 -0.03609,-0.0021 -0.05426,-0.0026 -0.01966,-5.29e-4 -0.03926,-0.0013 -0.05891,-0.0021 -0.01974,-7.93e-4 -0.0397,-0.0013 -0.05943,-0.0021 -0.02151,-7.94e-4 -0.04307,-0.0011 -0.06459,-0.0016 -0.02609,-7.94e-4 -0.05195,-0.0016 -0.07803,-0.0026 -0.0296,-7.93e-4 -0.05927,-0.0016 -0.08888,-0.0016 -0.01704,1.53e-4 -0.03413,1.29e-4 -0.05116,0.0011 -0.02074,7.94e-4 -0.02074,-0.01984 0,-0.02066 0.01696,-7.94e-4 0.03418,-7.94e-4 0.05116,-0.0011 0.02989,-2.01e-4 0.05952,-1.6e-5 0.0894,0.0011 0.02604,0.0011 0.05197,0.0024 0.07803,0.0031 0.02159,5.29e-4 0.04352,7.94e-4 0.06511,0.0016 0.01974,7.94e-4 0.03918,0.0013 0.05891,0.0021 0.01651,7.94e-4 0.03308,0.0011 0.04961,0.0016 -2.09e-4,-5.29e-4 -5.29e-4,-7.93e-4 -5.29e-4,-0.0016 -5.29e-4,-7.4e-5 -0.0013,9.5e-5 -0.0016,-5.29e-4 -0.0045,4.2e-5 -0.0075,-2.65e-4 -0.0078,-0.0041 -0.01323,-5.29e-4 -0.02656,-7.93e-4 -0.03979,-0.0016 -0.0056,-2.65e-4 -0.01093,-1.62e-4 -0.01654,-5.29e-4 -0.0026,-1.99e-4 -0.02093,-0.0016 -0.02479,-0.0021 -0.0019,-2.62e-4 -0.0054,2.65e-4 -0.0057,-0.0016 -0.0031,-0.02397 -0.0011,-0.02032 0.01394,-0.02222 0.02667,-0.0013 0.05339,-0.0021 0.0801,-0.0026 0.0057,-0.0065 0.01524,-0.0085 0.02326,-0.01035 -1.09e-4,-5.29e-4 7.4e-5,-0.0011 0,-0.0016 v -5.29e-4 c -0.0041,-0.007 -0.0021,-0.0096 0.0021,-0.01085 2.38e-4,-2.65e-4 2.19e-4,-7.94e-4 5.29e-4,-0.0011 0.0041,-0.0047 0.01283,-2.51e-4 0.01913,-5.29e-4 0.0011,-2.4e-5 5.29e-4,2.1e-5 0.0016,0 1.24e-4,-7.93e-4 5.29e-4,-0.0021 0.0011,-0.0031 v -5.29e-4 c -0.0011,-0.0021 -0.0021,-0.0046 -0.0031,-0.0067 -5.29e-4,-0.0013 0.003,8e-6 0.0047,0 7.94e-4,0 0.0027,5e-6 0.0036,0 7.94e-4,-0.0011 0.0016,-0.0019 0.0026,-0.0031 -2.17e-4,-5.29e-4 -2.54e-4,-0.0016 -5.3e-4,-0.0021 -5.29e-4,-0.0019 -2.64e-4,-0.0037 0,-0.0057 -0.04668,-2.9e-5 -0.0934,5.29e-4 -0.140044,0.0016 -0.02949,5.29e-4 -0.05898,5.29e-4 -0.08837,0.0031 -0.04138,0.0037 -0.04447,-0.03816 -0.0031,-0.04186 0.0301,-0.0027 0.06075,-0.0024 0.09095,-0.0031 0.04048,-7.94e-4 0.08096,-0.0016 0.121441,-0.0016 -0.0046,-0.0019 -0.0078,-0.0044 -0.0083,-0.0088 -0.03954,-0.0011 -0.07881,-0.0021 -0.11834,-0.0036 -0.07875,-0.0032 -0.157562,-0.0063 -0.236162,-0.01241 -0.01532,-0.0013 -0.03072,-0.0024 -0.04599,-0.0041 -0.01124,-0.0013 -0.0249,0.0021 -0.03359,-0.0052 -0.01053,-0.0087 -0.01167,-0.02484 -0.01757,-0.03721 0.0052,-0.0032 0.0098,-0.0072 0.0155,-0.0093 0.0058,-0.0021 0.03706,-0.003 0.03928,-0.0031 0.0377,-7.93e-4 0.07547,-7.93e-4 0.11317,-0.0016 0.02965,-2.65e-4 0.05929,-2.3e-4 0.08888,-5.29e-4 z" />
    </clipPath>
    <clipPath
       clipPathUnits="userSpaceOnUse"
       id="clipPath55-3">
      <path
         id="path56-0"
         style="fill:#ff0000;fill-opacity:1;fill-rule:nonzero;stroke:none;stroke-width:0.264583"
         d="m 30.293757,48.270954 v 5.777944 h 6.611485 v -5.777944 h -3.438035 c 0.02304,2.64e-4 0.04621,5.29e-4 0.06925,0.0011 0.113861,0.0024 0.227582,0.0086 0.341067,0.0181 0.07423,0.007 0.148632,0.01341 0.221692,0.02894 0.04063,0.0086 0.03188,0.04942 -0.0088,0.04082 -0.05866,-0.01244 -0.11812,-0.01868 -0.177765,-0.02429 -0.0011,0.0043 -0.0029,0.0092 -0.0047,0.01497 -0.0013,0.0042 -0.0086,0.0013 -0.01291,0.0016 -0.0054,2.6e-4 -0.01061,5.3e-4 -0.01601,5.3e-4 -0.0011,7.93e-4 -0.0024,0.0019 -0.0036,0.0026 0.03466,-5.29e-4 0.06925,-0.0021 0.103871,-0.0041 0.04151,-0.0026 0.04397,0.03936 0.0026,0.04186 -0.04052,0.0024 -0.08085,0.0043 -0.121441,0.0047 -0.0186,2.64e-4 -0.03721,2.3e-4 -0.05581,5.29e-4 7.93e-4,0.0034 0.0013,0.0065 0.0016,0.0088 0.0068,-1.27e-4 0.01331,-5.29e-4 0.02016,-5.29e-4 0.0034,-2.9e-5 0.0076,-0.0016 0.01085,0 0.0011,5.29e-4 0.0024,0.0019 0.0036,0.0026 h 5.29e-4 c 0.02167,5.29e-4 0.04346,0.0011 0.06511,0.0021 0.0087,5.3e-4 0.01712,7.94e-4 0.02585,0.0016 0.0037,5.29e-4 0.01077,-0.0016 0.01085,0.0021 9.8e-5,0.0045 -0.0016,0.0084 -0.0041,0.01241 0.0046,-10e-6 0.0093,3e-6 0.01394,0 0.0078,1.3e-4 0.01556,2.54e-4 0.02326,5.3e-4 0.007,2.03e-4 0.0343,-0.0024 0.01394,0.01963 -1.17e-4,7.93e-4 -2.17e-4,0.0019 -5.29e-4,0.0026 -7.94e-4,0.0021 -0.0028,0.0029 -0.0052,0.0026 h -5.29e-4 c -0.0038,0.0013 -0.0084,5.3e-4 -0.01291,0 -2.64e-4,0.0011 -5.29e-4,0.0021 -0.0011,0.0031 0.0013,0.0035 0.0021,0.007 0.0031,0.01035 5.29e-4,0.0013 -0.0027,1.1e-5 -0.0041,0 -0.0028,-4.2e-5 -0.0055,4e-5 -0.0083,0 -0.0039,0.0016 -0.0084,7.94e-4 -0.01291,0 -5.3e-4,-8.7e-5 -0.0011,9e-5 -0.0016,0 -0.01119,-4.5e-5 -0.02241,8e-6 -0.03359,0 7.94e-4,0.0019 5.29e-4,0.0037 0,0.0057 0.02859,0.0011 0.05717,0.0024 0.08578,0.0036 0.03388,0.0013 0.06792,0.0021 0.101801,0.0036 0.01797,7.94e-4 0.03576,0.0021 0.05374,0.0026 v -5.29e-4 c 0.02077,2.65e-4 0.02077,0.02156 0,0.02119 -0.0024,-5e-5 -0.0048,8.2e-5 -0.0072,0 -0.0026,0.0021 -0.0062,0.0035 -0.01138,0.0036 -0.01524,5.29e-4 -0.03074,2.41e-4 -0.04599,5.29e-4 -0.03123,2.65e-4 -0.0623,5.29e-4 -0.09354,5.29e-4 -0.03156,1.3e-5 -0.06301,-6.9e-5 -0.09457,0 -0.02663,7.2e-5 -0.05348,1.38e-4 -0.0801,5.29e-4 -0.02558,5.3e-4 -0.0509,0.0011 -0.07648,0.0021 -0.03157,0.0011 -0.0635,0.0019 -0.09508,0.0016 -0.02946,-1.19e-4 -0.05892,1.61e-4 -0.08837,-5.3e-4 -0.02267,-5.29e-4 -0.04502,-0.0016 -0.0677,-0.0026 -0.02005,-7.94e-4 -0.04042,-0.0016 -0.06046,-0.0026 -0.01815,-7.94e-4 -0.03609,-0.0021 -0.05426,-0.0026 -0.01966,-5.29e-4 -0.03926,-0.0013 -0.05891,-0.0021 -0.01974,-7.93e-4 -0.0397,-0.0013 -0.05943,-0.0021 -0.02151,-7.94e-4 -0.04307,-0.0011 -0.06459,-0.0016 -0.02609,-7.94e-4 -0.05195,-0.0016 -0.07803,-0.0026 -0.0296,-7.93e-4 -0.05927,-0.0016 -0.08888,-0.0016 -0.01704,1.53e-4 -0.03413,1.29e-4 -0.05116,0.0011 -0.02074,7.94e-4 -0.02074,-0.01984 0,-0.02066 0.01696,-7.94e-4 0.03418,-7.94e-4 0.05116,-0.0011 0.02989,-2.01e-4 0.05952,-1.6e-5 0.0894,0.0011 0.02604,0.0011 0.05197,0.0024 0.07803,0.0031 0.02159,5.29e-4 0.04352,7.94e-4 0.06511,0.0016 0.01974,7.94e-4 0.03918,0.0013 0.05891,0.0021 0.01651,7.94e-4 0.03308,0.0011 0.04961,0.0016 -2.09e-4,-5.29e-4 -5.29e-4,-7.93e-4 -5.29e-4,-0.0016 -5.29e-4,-7.4e-5 -0.0013,9.5e-5 -0.0016,-5.29e-4 -0.0045,4.2e-5 -0.0075,-2.65e-4 -0.0078,-0.0041 -0.01323,-5.29e-4 -0.02656,-7.93e-4 -0.03979,-0.0016 -0.0056,-2.65e-4 -0.01093,-1.62e-4 -0.01654,-5.29e-4 -0.0026,-1.99e-4 -0.02093,-0.0016 -0.02479,-0.0021 -0.0019,-2.62e-4 -0.0054,2.65e-4 -0.0057,-0.0016 -0.0031,-0.02397 -0.0011,-0.02032 0.01394,-0.02222 0.02667,-0.0013 0.05339,-0.0021 0.0801,-0.0026 0.0057,-0.0065 0.01524,-0.0085 0.02326,-0.01035 -1.09e-4,-5.29e-4 7.4e-5,-0.0011 0,-0.0016 v -5.29e-4 c -0.0041,-0.007 -0.0021,-0.0096 0.0021,-0.01085 2.38e-4,-2.65e-4 2.19e-4,-7.94e-4 5.29e-4,-0.0011 0.0041,-0.0047 0.01283,-2.51e-4 0.01913,-5.29e-4 0.0011,-2.4e-5 5.29e-4,2.1e-5 0.0016,0 1.24e-4,-7.93e-4 5.29e-4,-0.0021 0.0011,-0.0031 v -5.29e-4 c -0.0011,-0.0021 -0.0021,-0.0046 -0.0031,-0.0067 -5.29e-4,-0.0013 0.003,8e-6 0.0047,0 7.94e-4,0 0.0027,5e-6 0.0036,0 7.94e-4,-0.0011 0.0016,-0.0019 0.0026,-0.0031 -2.17e-4,-5.29e-4 -2.54e-4,-0.0016 -5.3e-4,-0.0021 -5.29e-4,-0.0019 -2.64e-4,-0.0037 0,-0.0057 -0.04668,-2.9e-5 -0.0934,5.29e-4 -0.140044,0.0016 -0.02949,5.29e-4 -0.05898,5.29e-4 -0.08837,0.0031 -0.04138,0.0037 -0.04447,-0.03816 -0.0031,-0.04186 0.0301,-0.0027 0.06075,-0.0024 0.09095,-0.0031 0.04048,-7.94e-4 0.08096,-0.0016 0.121441,-0.0016 -0.0046,-0.0019 -0.0078,-0.0044 -0.0083,-0.0088 -0.03954,-0.0011 -0.07881,-0.0021 -0.11834,-0.0036 -0.07875,-0.0032 -0.157562,-0.0063 -0.236162,-0.01241 -0.01532,-0.0013 -0.03072,-0.0024 -0.04599,-0.0041 -0.01124,-0.0013 -0.0249,0.0021 -0.03359,-0.0052 -0.01053,-0.0087 -0.01167,-0.02484 -0.01757,-0.03721 0.0052,-0.0032 0.0098,-0.0072 0.0155,-0.0093 0.0058,-0.0021 0.03706,-0.003 0.03928,-0.0031 0.0377,-7.93e-4 0.07547,-7.93e-4 0.11317,-0.0016 0.02965,-2.65e-4 0.05929,-2.3e-4 0.08888,-5.29e-4 z" />
    </clipPath>
  </defs>
  <g
     id="g1"
     transform="matrix(0.8952539,0,0,0.68250978,-31.007445,-36.698096)">
    <path
       id="path31"
       style="fill:#00a2e8;fill-opacity:1;stroke:#00a2e8;stroke-width:0.517313;stroke-linecap:round;stroke-linejoin:round;stroke-dasharray:none;stroke-opacity:1"
       d="M 96.138415,145.34088 111.4758,116.65464 H 95.829193 Z M 81.504304,116.01374 c 0,0 -0.05375,3.22594 0.263595,4.65642 0.248562,1.12042 0.490804,2.07704 1.713371,4.29841 0.274078,0.49799 1.727797,2.52827 3.880003,3.83596 1.279644,0.77753 2.620764,1.25789 3.961245,1.46591 1.480747,0.22979 4.196273,0.2949 4.196273,0.2949 v -14.5516 z m 0.02173,-30.183357 h 13.93258 v 30.137187 h -13.93258 z" />
    <g
       inkscape:groupmode="layer"
       id="layer4"
       inkscape:label="Layer 2">
      <g
         inkscape:label="Layer 1"
         inkscape:groupmode="layer"
         id="layer1">
        <g
           id="g27"
           transform="translate(114.22578,1.7903727)">
          <path
             id="path4-3"
             style="display:inline;fill:none;stroke:#000000;stroke-width:0.672526;stroke-linecap:round;stroke-linejoin:round;stroke-dasharray:none"
             d="m -47.887899,112.84768 v 3.27176 M 22.1,112.85727 v 3.26297 m -49.911669,-3.27575 v 3.27679 m 19.917729,-3.27113 v 3.27138 m -29.946329,-3.26447 V 116.12 m -20.047143,-3.27637 v 3.27626 m -9.944033,-3.27844 v 3.27687 m 99.944315,-3.26728 v 3.27215 m -20.00351,-3.28404 v 3.27615 m -28.90139,-12.4116 h -3.23458 m 3.21608,-9.994311 h -3.1968 m 3.2134,-9.97444 h -3.23503 m 3.20512,-9.97048 h -3.2164 m 3.21613,-9.853535 h -3.17983 m 3.18598,99.815786 h -3.21675 m 3.19491,-9.8579 h -3.19836 M -16.818,143.7662 h -3.21667 m 3.2426,-19.9612 h -3.25185 m 3.20527,10.0033 H -20.037 M 2.12339,112.84196 v 3.26747 m 42.8091,-1.6561 -3.56505,-2.00946 z m -0.0507,0.0349 -3.50927,2.10639 z m -0.60582,-0.002 H -79.639582 Z m -62.72883,-62.372693 -2.00946,3.565044 z m 0.0349,0.05064 2.10639,3.509272 z m -0.002,0.60582 V 176.6856 Z" />
          <path
             id="text23"
             style="font-size:3.88056px;font-family:Arial;-inkscape-font-specification:Arial;stroke-width:0.529167;stroke-linecap:round;stroke-linejoin:round"
             d="m -15.16577,54.645589 -0.0379,-0.320222 q 0.1118,0.03032 0.19517,0.03032 0.11369,0 0.1819,-0.0379 0.0682,-0.0379 0.11179,-0.106109 0.0322,-0.05116 0.10422,-0.253904 0.009,-0.02842 0.0303,-0.08337 l -0.7636,-2.016072 h 0.36759 l 0.41875,1.165305 q 0.0815,0.221692 0.1459,0.466122 0.0587,-0.234956 0.14022,-0.458543 l 0.43012,-1.172884 h 0.34106 l -0.7655,2.046389 q -0.12316,0.331591 -0.19137,0.456648 -0.091,0.168637 -0.20843,0.246324 -0.11748,0.07958 -0.28043,0.07958 -0.0985,0 -0.2198,-0.04169 z m 58.05247,64.556191 0.73518,-1.04593 -0.68023,-0.96635 h 0.42633 l 0.30885,0.4718 q 0.0872,0.13453 0.14022,0.22549 0.0834,-0.12506 0.15348,-0.2217 l 0.33917,-0.47559 h 0.40738 l -0.6954,0.9474 0.74845,1.06488 h -0.41875 l -0.41307,-0.62529 -0.1099,-0.16863 -0.52865,0.79392 z m -58.92654,44.61988 v -0.34296 h 1.04783 v 0.34296 z m 1.33015,0.10611 0.35812,-0.0303 q 0.0398,0.26148 0.1838,0.39412 0.1459,0.13074 0.35053,0.13074 0.24633,0 0.41686,-0.18569 0.17053,-0.18569 0.17053,-0.49265 0,-0.2918 -0.16484,-0.46044 -0.16296,-0.16864 -0.42823,-0.16864 -0.16485,0 -0.29748,0.0758 -0.13264,0.0739 -0.20843,0.19327 l -0.32022,-0.0417 0.26906,-1.42679 h 1.38131 v 0.32591 h -1.10846 l -0.14969,0.74655 q 0.25011,-0.17432 0.52486,-0.17432 0.3638,0 0.61392,0.25201 0.25011,0.25201 0.25011,0.64802 0,0.37707 -0.2198,0.65181 -0.26716,0.33728 -0.7295,0.33728 -0.37896,0 -0.6196,-0.21222 -0.23874,-0.21222 -0.27285,-0.56275 z m -1.32658,-9.90973 v -0.34296 h 1.04783 v 0.34296 z m 2.42345,0.83371 v -0.66508 h -1.20509 v -0.31264 l 1.26762,-1.80006 h 0.27854 v 1.80006 h 0.37517 v 0.31264 h -0.37517 v 0.66508 z m 0,-0.97772 v -1.25246 l -0.86971,1.25246 z m -2.42159,-9.95266 v -0.34296 h 1.04783 v 0.34296 z m 1.33205,0.10043 0.34106,-0.0455 q 0.0587,0.28991 0.19896,0.41875 0.14211,0.12696 0.34485,0.12696 0.24064,0 0.40549,-0.16675 0.16674,-0.16674 0.16674,-0.41307 0,-0.23495 -0.15348,-0.38654 -0.15348,-0.15347 -0.39033,-0.15347 -0.0966,0 -0.24064,0.0379 l 0.0379,-0.29938 q 0.0341,0.004 0.055,0.004 0.2179,0 0.39222,-0.11369 0.17433,-0.11368 0.17433,-0.35053 0,-0.18759 -0.12696,-0.31075 -0.12695,-0.12317 -0.3278,-0.12317 -0.19895,0 -0.33159,0.12506 -0.13263,0.12506 -0.17053,0.37517 l -0.34107,-0.0606 q 0.0625,-0.34296 0.28423,-0.53055 0.22169,-0.18948 0.55138,-0.18948 0.22738,0 0.41876,0.0985 0.19137,0.0966 0.2918,0.26528 0.10231,0.16863 0.10231,0.35811 0,0.18001 -0.0966,0.32781 -0.0966,0.14779 -0.28612,0.23495 0.24633,0.0568 0.38275,0.23685 0.13643,0.17811 0.13643,0.44718 0,0.3638 -0.26527,0.6177 -0.26527,0.25201 -0.67076,0.25201 -0.3657,0 -0.60823,-0.2179 -0.24065,-0.2179 -0.27475,-0.56465 z m -1.3356,-9.97277 v -0.34296 h 1.04782 v 0.34296 z m 3.12263,0.50591 v 0.3278 h -1.83606 q -0.004,-0.12316 0.0398,-0.23685 0.0701,-0.18759 0.22359,-0.36949 0.15537,-0.1819 0.44717,-0.42064 0.45286,-0.37138 0.61202,-0.58739 0.15916,-0.2179 0.15916,-0.41117 0,-0.20275 -0.14589,-0.34107 -0.14401,-0.14022 -0.37707,-0.14022 -0.24633,0 -0.39412,0.1478 -0.1478,0.14779 -0.14969,0.40928 l -0.35054,-0.036 q 0.036,-0.39223 0.27096,-0.59687 0.23495,-0.20653 0.63097,-0.20653 0.3998,0 0.63286,0.22169 0.23306,0.22169 0.23306,0.54949 0,0.16675 -0.0682,0.32781 -0.0682,0.16105 -0.22738,0.33917 -0.15726,0.17811 -0.52486,0.48886 -0.30695,0.25769 -0.39412,0.35053 -0.0872,0.0909 -0.144,0.1838 z m -3.16421,-10.5013 v -0.34296 h 1.04782 v 0.34296 z m 2.61483,0.83372 h -0.34107 v -2.17334 q -0.12316,0.11747 -0.32401,0.23495 -0.19896,0.11748 -0.35812,0.17622 v -0.3297 q 0.28612,-0.13453 0.50023,-0.3259 0.21411,-0.19138 0.30317,-0.37139 h 0.2198 z m -1.88065,-60.549465 0.35812,-0.03032 q 0.0398,0.261483 0.18379,0.394119 0.1459,0.130742 0.35054,0.130742 0.24633,0 0.41686,-0.185691 0.17053,-0.185691 0.17053,-0.492649 0,-0.2918 -0.16485,-0.460438 -0.16295,-0.168638 -0.42822,-0.168638 -0.16485,0 -0.29749,0.07579 -0.13263,0.0739 -0.20842,0.19327 l -0.32023,-0.04169 0.26907,-1.426788 h 1.38131 v 0.325906 h -1.10846 l -0.14969,0.746553 q 0.25011,-0.174322 0.52486,-0.174322 0.3638,0 0.61392,0.252009 0.25011,0.252009 0.25011,0.648024 0,0.377066 -0.2198,0.651812 -0.26716,0.337276 -0.7295,0.337276 -0.37896,0 -0.6196,-0.212218 -0.23874,-0.212219 -0.27285,-0.562757 z m 1.11952,10.54657 v -0.665076 h -1.2051 v -0.312643 l 1.26763,-1.800064 h 0.27853 v 1.800064 h 0.37517 v 0.312643 h -0.37517 v 0.665076 z m 0,-0.977719 V 72.65428 l -0.86972,1.252466 z m -1.09141,10.401611 0.34106,-0.04547 q 0.0587,0.289905 0.19896,0.418751 0.14211,0.126952 0.34485,0.126952 0.24064,0 0.40549,-0.166743 0.16674,-0.166742 0.16674,-0.413067 0,-0.234956 -0.15347,-0.38654 -0.15348,-0.153479 -0.39033,-0.153479 -0.0966,0 -0.24064,0.0379 l 0.0379,-0.299379 q 0.0341,0.0038 0.055,0.0038 0.2179,0 0.39223,-0.113688 0.17432,-0.113688 0.17432,-0.350539 0,-0.187586 -0.12695,-0.310748 -0.12696,-0.123162 -0.32781,-0.123162 -0.19895,0 -0.33159,0.125057 -0.13263,0.125057 -0.17053,0.375171 l -0.34106,-0.06063 q 0.0625,-0.34296 0.28422,-0.530546 0.22169,-0.18948 0.55139,-0.18948 0.22737,0 0.41875,0.09853 0.19137,0.09663 0.2918,0.265272 0.10232,0.168638 0.10232,0.358118 0,0.180007 -0.0966,0.327802 -0.0966,0.147794 -0.28611,0.234955 0.24632,0.05684 0.38275,0.236851 0.13642,0.178112 0.13642,0.447174 0,0.363802 -0.26527,0.617706 -0.26527,0.252009 -0.67076,0.252009 -0.3657,0 -0.60823,-0.217902 -0.24064,-0.217903 -0.27475,-0.564652 z m 1.80052,10.257974 v 0.327801 h -1.83606 q -0.004,-0.123162 0.0398,-0.236851 0.0701,-0.187585 0.22359,-0.369487 0.15537,-0.181901 0.44717,-0.420646 0.45286,-0.371382 0.61202,-0.58739 0.15917,-0.217902 0.15917,-0.411172 0,-0.202744 -0.1459,-0.341065 -0.14401,-0.140216 -0.37707,-0.140216 -0.24633,0 -0.39412,0.147795 -0.1478,0.147795 -0.14969,0.409278 l -0.35054,-0.036 q 0.036,-0.392225 0.27096,-0.596864 0.23495,-0.206534 0.63097,-0.206534 0.3998,0 0.63286,0.221693 0.23306,0.221692 0.23306,0.549493 0,0.166743 -0.0682,0.327801 -0.0682,0.161059 -0.22738,0.33917 -0.15726,0.178112 -0.52486,0.48886 -0.30695,0.257693 -0.39412,0.350539 -0.0872,0.09095 -0.144,0.183796 z m 0.009,10.543779 h -0.34107 v -2.17335 q -0.12316,0.11748 -0.32401,0.23496 -0.19895,0.11748 -0.35812,0.17622 v -0.3297 q 0.28612,-0.13453 0.50023,-0.32591 0.21412,-0.19137 0.30317,-0.37138 h 0.2198 z m -55.8987,13.98294 v -0.34296 h 1.047827 v 0.34296 z m 1.330153,0.10611 0.358118,-0.0303 q 0.03979,0.26148 0.183796,0.39412 0.1459,0.13074 0.350539,0.13074 0.246324,0 0.416857,-0.18569 0.170532,-0.18569 0.170532,-0.49265 0,-0.2918 -0.164848,-0.46044 -0.162953,-0.16863 -0.428226,-0.16863 -0.164848,0 -0.297484,0.0758 -0.132636,0.0739 -0.208428,0.19327 l -0.320222,-0.0417 0.269062,-1.42678 h 1.381312 v 0.3259 h -1.10846 l -0.14969,0.74655 q 0.250114,-0.17432 0.524861,-0.17432 0.363803,0 0.613917,0.25201 0.250114,0.25201 0.250114,0.64802 0,0.37707 -0.219797,0.65182 -0.267168,0.33727 -0.7295,0.33727 -0.378961,0 -0.619601,-0.21222 -0.238746,-0.21221 -0.272852,-0.56275 z m 8.669714,-0.0898 v -0.34296 h 1.047826 v 0.34296 z m 2.423455,0.83372 V 119.278 h -1.205096 v -0.31264 l 1.267624,-1.80007 h 0.278536 v 1.80007 h 0.375172 v 0.31264 h -0.375172 v 0.66508 z m 0,-0.97772 v -1.25247 l -0.869716,1.25247 z m 7.602629,0.17472 v -0.34296 h 1.047827 v 0.34296 z m 1.332048,0.10042 0.341065,-0.0455 q 0.05874,0.2899 0.198954,0.41875 0.142111,0.12695 0.344855,0.12695 0.24064,0 0.405488,-0.16674 0.166743,-0.16674 0.166743,-0.41307 0,-0.23495 -0.153479,-0.38654 -0.15348,-0.15348 -0.39033,-0.15348 -0.09663,0 -0.24064,0.0379 l 0.0379,-0.29938 q 0.03411,0.004 0.05495,0.004 0.217903,0 0.392225,-0.11369 0.174322,-0.11369 0.174322,-0.35054 0,-0.18758 -0.126952,-0.31075 -0.126952,-0.12316 -0.327801,-0.12316 -0.198955,0 -0.331591,0.12506 -0.132637,0.12506 -0.170533,0.37517 l -0.341064,-0.0606 q 0.06253,-0.34296 0.28422,-0.53055 0.221692,-0.18948 0.551388,-0.18948 0.227377,0 0.418752,0.0985 0.191375,0.0966 0.2918,0.26527 0.10232,0.16864 0.10232,0.35812 0,0.18001 -0.09664,0.3278 -0.09664,0.1478 -0.286116,0.23496 0.246325,0.0568 0.382751,0.23685 0.136425,0.17811 0.136425,0.44717 0,0.3638 -0.265272,0.61771 -0.265273,0.25201 -0.670761,0.25201 -0.365697,0 -0.608232,-0.2179 -0.24064,-0.21791 -0.274747,-0.56466 z m 8.604522,-0.10042 v -0.34296 h 1.047827 v 0.34296 z m 3.122638,0.50591 v 0.3278 h -1.836066 q -0.0038,-0.12316 0.03979,-0.23685 0.07011,-0.18758 0.223587,-0.36948 0.155374,-0.18191 0.447174,-0.42065 0.452858,-0.37138 0.612022,-0.58739 0.159163,-0.2179 0.159163,-0.41117 0,-0.20275 -0.1459,-0.34107 -0.144005,-0.14021 -0.377066,-0.14021 -0.246325,0 -0.394119,0.14779 -0.147795,0.1478 -0.14969,0.40928 l -0.350539,-0.036 q 0.036,-0.39223 0.270957,-0.59687 0.234956,-0.20653 0.63097,-0.20653 0.399804,0 0.632865,0.22169 0.233061,0.22169 0.233061,0.5495 0,0.16674 -0.06821,0.3278 -0.06821,0.16106 -0.227377,0.33917 -0.157268,0.17811 -0.52486,0.48886 -0.306959,0.25769 -0.39412,0.35054 -0.08716,0.0909 -0.144005,0.18379 z m 7.235302,-0.53477 v -0.34296 h 1.047827 v 0.34296 z m 2.614831,0.83371 h -0.341065 v -2.17334 q -0.123162,0.11748 -0.324012,0.23496 -0.198954,0.11747 -0.358118,0.17621 v -0.32969 q 0.286116,-0.13453 0.500229,-0.32591 0.214113,-0.19138 0.303168,-0.37138 h 0.219798 z m 57.632578,-0.76364 0.35812,-0.0303 q 0.0398,0.26148 0.18379,0.39411 0.1459,0.13075 0.35054,0.13075 0.24633,0 0.41686,-0.18569 0.17053,-0.1857 0.17053,-0.49265 0,-0.2918 -0.16485,-0.46044 -0.16295,-0.16864 -0.42822,-0.16864 -0.16485,0 -0.29749,0.0758 -0.13263,0.0739 -0.20843,0.19327 l -0.32022,-0.0417 0.26906,-1.42679 h 1.38132 v 0.32591 h -1.10846 l -0.14969,0.74655 q 0.25011,-0.17432 0.52486,-0.17432 0.3638,0 0.61391,0.25201 0.25012,0.25201 0.25012,0.64802 0,0.37707 -0.2198,0.65181 -0.26717,0.33728 -0.7295,0.33728 -0.37896,0 -0.6196,-0.21222 -0.23875,-0.21222 -0.27285,-0.56276 z m -8.8209,0.74998 v -0.66508 h -1.2051 v -0.31264 l 1.26763,-1.80007 h 0.27854 v 1.80007 h 0.37517 v 0.31264 h -0.37517 v 0.66508 z m 0,-0.97772 v -1.25247 l -0.86971,1.25247 z m -11.0951,0.24443 0.34107,-0.0455 q 0.0587,0.28991 0.19895,0.41875 0.14211,0.12696 0.34485,0.12696 0.24064,0 0.40549,-0.16675 0.16675,-0.16674 0.16675,-0.41306 0,-0.23496 -0.15348,-0.38654 -0.15348,-0.15348 -0.39033,-0.15348 -0.0966,0 -0.24064,0.0379 l 0.0379,-0.29938 q 0.0341,0.004 0.055,0.004 0.2179,0 0.39223,-0.11369 0.17432,-0.11368 0.17432,-0.35053 0,-0.18759 -0.12695,-0.31075 -0.12696,-0.12316 -0.3278,-0.12316 -0.19896,0 -0.3316,0.12505 -0.13263,0.12506 -0.17053,0.37517 l -0.34106,-0.0606 q 0.0625,-0.34296 0.28422,-0.53055 0.22169,-0.18948 0.55139,-0.18948 0.22737,0 0.41875,0.0985 0.19137,0.0966 0.2918,0.26528 0.10232,0.16863 0.10232,0.35811 0,0.18001 -0.0966,0.32781 -0.0966,0.14779 -0.28611,0.23495 0.24632,0.0568 0.38275,0.23685 0.13642,0.17811 0.13642,0.44718 0,0.3638 -0.26527,0.6177 -0.26527,0.25201 -0.67076,0.25201 -0.3657,0 -0.60823,-0.2179 -0.24064,-0.2179 -0.27475,-0.56465 z m -8.19074,0.40549 v 0.3278 H 1.21863 q -0.004,-0.12317 0.0398,-0.23685 0.0701,-0.18759 0.22358,-0.36949 0.15538,-0.1819 0.44718,-0.42065 0.45285,-0.37138 0.61202,-0.58739 0.15916,-0.2179 0.15916,-0.41117 0,-0.20274 -0.1459,-0.34106 -0.144,-0.14022 -0.37706,-0.14022 -0.24633,0 -0.39412,0.14779 -0.1478,0.1478 -0.14969,0.40928 l -0.35054,-0.036 q 0.036,-0.39222 0.27095,-0.59686 0.23496,-0.20654 0.63097,-0.20654 0.39981,0 0.63287,0.2217 0.23306,0.22169 0.23306,0.54949 0,0.16674 -0.0682,0.3278 -0.0682,0.16106 -0.22738,0.33917 -0.15727,0.17811 -0.52486,0.48886 -0.30696,0.25769 -0.39412,0.35054 -0.0872,0.0909 -0.144,0.1838 z m -10.60739,0.35721 h -0.34107 v -2.17334 q -0.12316,0.11747 -0.32401,0.23495 -0.19895,0.11748 -0.35812,0.17622 v -0.3297 q 0.28612,-0.13453 0.50023,-0.3259 0.21411,-0.19138 0.30317,-0.37138 h 0.2198 z" />
        </g>
      </g>
    </g>
  </g>
</svg>
