<?xml version="1.0" encoding="UTF-8" standalone="no"?>
<!-- Created with Inkscape (http://www.inkscape.org/) -->

<svg
   width="422"
   height="322"
   viewBox="0 0 111.65417 85.195834"
   version="1.1"
   id="svg1"
   inkscape:version="1.3 (0e150ed6c4, 2023-07-21)"
   sodipodi:docname="drawing_r=2.svg"
   inkscape:export-filename="drawing_r=5.png"
   inkscape:export-xdpi="96"
   inkscape:export-ydpi="96"
   xmlns:inkscape="http://www.inkscape.org/namespaces/inkscape"
   xmlns:sodipodi="http://sodipodi.sourceforge.net/DTD/sodipodi-0.dtd"
   xmlns="http://www.w3.org/2000/svg"
   xmlns:svg="http://www.w3.org/2000/svg">
  <sodipodi:namedview
     id="namedview1"
     pagecolor="#ffffff"
     bordercolor="#000000"
     borderopacity="0.25"
     inkscape:showpageshadow="2"
     inkscape:pageopacity="0.0"
     inkscape:pagecheckerboard="0"
     inkscape:deskcolor="#d1d1d1"
     inkscape:document-units="px"
     inkscape:zoom="2.955623"
     inkscape:cx="238.69756"
     inkscape:cy="182.53343"
     inkscape:window-width="2560"
     inkscape:window-height="1369"
     inkscape:window-x="-8"
     inkscape:window-y="-8"
     inkscape:window-maximized="1"
     inkscape:current-layer="layer1" />
  <defs
     id="defs1" />
  <g
     inkscape:groupmode="layer"
     id="layer3"
     inkscape:label="Layer 2"
     transform="matrix(0.89525395,0,0,0.68250981,11.634486,-51.697019)">
    <g
       inkscape:label="Layer 1"
       inkscape:groupmode="layer"
       id="layer1">
      <g
         id="g1"
         transform="matrix(0.99984454,0,0,1,-47.791433,22.344905)">
        <path
           id="path30"
           style="fill:#00a2e8;fill-opacity:1;stroke:#00a2e8;stroke-width:0.51148;stroke-linecap:round;stroke-linejoin:round;stroke-dasharray:none;stroke-opacity:1"
           d="M 96.065951,135.41337 106.10369,116.47128 H 95.895097 Z m -9.422569,-19.40073 c 0,0 0.01984,2.3081 0.172628,3.44182 0.140509,1.04259 0.468911,1.99997 0.971893,2.87627 0.448262,0.78096 1.140426,1.45432 1.883944,1.95473 0.907829,0.611 1.931479,1.04614 3.018099,1.14399 1.060904,0.0955 3.037378,0.0316 3.037378,0.0316 l -0.01582,-9.53743 z m 0.0082,-20.3197 h 9.046335 v 20.32568 h -9.046335 z" />
        <g
           id="g27"
           transform="translate(114.22578,1.7903727)">
          <path
             id="path4-3"
             style="display:inline;fill:none;stroke:#000000;stroke-width:0.672526;stroke-linecap:round;stroke-linejoin:round;stroke-dasharray:none"
             d="m -47.887899,112.84768 v 3.27176 M 22.1,112.85727 v 3.26297 m -49.911669,-3.27575 v 3.27679 m 19.917729,-3.27113 v 3.27138 m -29.946329,-3.26447 V 116.12 m -20.047143,-3.27637 v 3.27626 m -9.944033,-3.27844 v 3.27687 m 99.944315,-3.26728 v 3.27215 m -20.00351,-3.28404 v 3.27615 m -28.90139,-12.4116 h -3.23458 m 3.21608,-9.994311 h -3.1968 m 3.2134,-9.97444 h -3.23503 m 3.20512,-9.97048 h -3.2164 m 3.21613,-9.853535 h -3.17983 m 3.18598,99.815786 h -3.21675 m 3.19491,-9.8579 h -3.19836 M -16.818,143.7662 h -3.21667 m 3.2426,-19.9612 h -3.25185 m 3.20527,10.0033 H -20.037 M 2.12339,112.84196 v 3.26747 m 42.8091,-1.6561 -3.56505,-2.00946 z m -0.0507,0.0349 -3.50927,2.10639 z m -0.60582,-0.002 H -79.639582 Z m -62.72883,-62.372693 -2.00946,3.565044 z m 0.0349,0.05064 2.10639,3.509272 z m -0.002,0.60582 V 176.6856 Z" />
          <path
             id="text23"
             style="font-size:3.88056px;font-family:Arial;-inkscape-font-specification:Arial;stroke-width:0.529167;stroke-linecap:round;stroke-linejoin:round"
             d="m -15.16577,54.645589 -0.0379,-0.320222 q 0.1118,0.03032 0.19517,0.03032 0.11369,0 0.1819,-0.0379 0.0682,-0.0379 0.11179,-0.106109 0.0322,-0.05116 0.10422,-0.253904 0.009,-0.02842 0.0303,-0.08337 l -0.7636,-2.016072 h 0.36759 l 0.41875,1.165305 q 0.0815,0.221692 0.1459,0.466122 0.0587,-0.234956 0.14022,-0.458543 l 0.43012,-1.172884 h 0.34106 l -0.7655,2.046389 q -0.12316,0.331591 -0.19137,0.456648 -0.091,0.168637 -0.20843,0.246324 -0.11748,0.07958 -0.28043,0.07958 -0.0985,0 -0.2198,-0.04169 z m 58.05247,64.556191 0.73518,-1.04593 -0.68023,-0.96635 h 0.42633 l 0.30885,0.4718 q 0.0872,0.13453 0.14022,0.22549 0.0834,-0.12506 0.15348,-0.2217 l 0.33917,-0.47559 h 0.40738 l -0.6954,0.9474 0.74845,1.06488 h -0.41875 l -0.41307,-0.62529 -0.1099,-0.16863 -0.52865,0.79392 z m -58.92654,44.61988 v -0.34296 h 1.04783 v 0.34296 z m 1.33015,0.10611 0.35812,-0.0303 q 0.0398,0.26148 0.1838,0.39412 0.1459,0.13074 0.35053,0.13074 0.24633,0 0.41686,-0.18569 0.17053,-0.18569 0.17053,-0.49265 0,-0.2918 -0.16484,-0.46044 -0.16296,-0.16864 -0.42823,-0.16864 -0.16485,0 -0.29748,0.0758 -0.13264,0.0739 -0.20843,0.19327 l -0.32022,-0.0417 0.26906,-1.42679 h 1.38131 v 0.32591 h -1.10846 l -0.14969,0.74655 q 0.25011,-0.17432 0.52486,-0.17432 0.3638,0 0.61392,0.25201 0.25011,0.25201 0.25011,0.64802 0,0.37707 -0.2198,0.65181 -0.26716,0.33728 -0.7295,0.33728 -0.37896,0 -0.6196,-0.21222 -0.23874,-0.21222 -0.27285,-0.56275 z m -1.32658,-9.90973 v -0.34296 h 1.04783 v 0.34296 z m 2.42345,0.83371 v -0.66508 h -1.20509 v -0.31264 l 1.26762,-1.80006 h 0.27854 v 1.80006 h 0.37517 v 0.31264 h -0.37517 v 0.66508 z m 0,-0.97772 v -1.25246 l -0.86971,1.25246 z m -2.42159,-9.95266 v -0.34296 h 1.04783 v 0.34296 z m 1.33205,0.10043 0.34106,-0.0455 q 0.0587,0.28991 0.19896,0.41875 0.14211,0.12696 0.34485,0.12696 0.24064,0 0.40549,-0.16675 0.16674,-0.16674 0.16674,-0.41307 0,-0.23495 -0.15348,-0.38654 -0.15348,-0.15347 -0.39033,-0.15347 -0.0966,0 -0.24064,0.0379 l 0.0379,-0.29938 q 0.0341,0.004 0.055,0.004 0.2179,0 0.39222,-0.11369 0.17433,-0.11368 0.17433,-0.35053 0,-0.18759 -0.12696,-0.31075 -0.12695,-0.12317 -0.3278,-0.12317 -0.19895,0 -0.33159,0.12506 -0.13263,0.12506 -0.17053,0.37517 l -0.34107,-0.0606 q 0.0625,-0.34296 0.28423,-0.53055 0.22169,-0.18948 0.55138,-0.18948 0.22738,0 0.41876,0.0985 0.19137,0.0966 0.2918,0.26528 0.10231,0.16863 0.10231,0.35811 0,0.18001 -0.0966,0.32781 -0.0966,0.14779 -0.28612,0.23495 0.24633,0.0568 0.38275,0.23685 0.13643,0.17811 0.13643,0.44718 0,0.3638 -0.26527,0.6177 -0.26527,0.25201 -0.67076,0.25201 -0.3657,0 -0.60823,-0.2179 -0.24065,-0.2179 -0.27475,-0.56465 z m -1.3356,-9.97277 v -0.34296 h 1.04782 v 0.34296 z m 3.12263,0.50591 v 0.3278 h -1.83606 q -0.004,-0.12316 0.0398,-0.23685 0.0701,-0.18759 0.22359,-0.36949 0.15537,-0.1819 0.44717,-0.42064 0.45286,-0.37138 0.61202,-0.58739 0.15916,-0.2179 0.15916,-0.41117 0,-0.20275 -0.14589,-0.34107 -0.14401,-0.14022 -0.37707,-0.14022 -0.24633,0 -0.39412,0.1478 -0.1478,0.14779 -0.14969,0.40928 l -0.35054,-0.036 q 0.036,-0.39223 0.27096,-0.59687 0.23495,-0.20653 0.63097,-0.20653 0.3998,0 0.63286,0.22169 0.23306,0.22169 0.23306,0.54949 0,0.16675 -0.0682,0.32781 -0.0682,0.16105 -0.22738,0.33917 -0.15726,0.17811 -0.52486,0.48886 -0.30695,0.25769 -0.39412,0.35053 -0.0872,0.0909 -0.144,0.1838 z m -3.16421,-10.5013 v -0.34296 h 1.04782 v 0.34296 z m 2.61483,0.83372 h -0.34107 v -2.17334 q -0.12316,0.11747 -0.32401,0.23495 -0.19896,0.11748 -0.35812,0.17622 v -0.3297 q 0.28612,-0.13453 0.50023,-0.3259 0.21411,-0.19138 0.30317,-0.37139 h 0.2198 z m -1.88065,-60.549465 0.35812,-0.03032 q 0.0398,0.261483 0.18379,0.394119 0.1459,0.130742 0.35054,0.130742 0.24633,0 0.41686,-0.185691 0.17053,-0.185691 0.17053,-0.492649 0,-0.2918 -0.16485,-0.460438 -0.16295,-0.168638 -0.42822,-0.168638 -0.16485,0 -0.29749,0.07579 -0.13263,0.0739 -0.20842,0.19327 l -0.32023,-0.04169 0.26907,-1.426788 h 1.38131 v 0.325906 h -1.10846 l -0.14969,0.746553 q 0.25011,-0.174322 0.52486,-0.174322 0.3638,0 0.61392,0.252009 0.25011,0.252009 0.25011,0.648024 0,0.377066 -0.2198,0.651812 -0.26716,0.337276 -0.7295,0.337276 -0.37896,0 -0.6196,-0.212218 -0.23874,-0.212219 -0.27285,-0.562757 z m 1.11952,10.54657 v -0.665076 h -1.2051 v -0.312643 l 1.26763,-1.800064 h 0.27853 v 1.800064 h 0.37517 v 0.312643 h -0.37517 v 0.665076 z m 0,-0.977719 V 72.65428 l -0.86972,1.252466 z m -1.09141,10.401611 0.34106,-0.04547 q 0.0587,0.289905 0.19896,0.418751 0.14211,0.126952 0.34485,0.126952 0.24064,0 0.40549,-0.166743 0.16674,-0.166742 0.16674,-0.413067 0,-0.234956 -0.15347,-0.38654 -0.15348,-0.153479 -0.39033,-0.153479 -0.0966,0 -0.24064,0.0379 l 0.0379,-0.299379 q 0.0341,0.0038 0.055,0.0038 0.2179,0 0.39223,-0.113688 0.17432,-0.113688 0.17432,-0.350539 0,-0.187586 -0.12695,-0.310748 -0.12696,-0.123162 -0.32781,-0.123162 -0.19895,0 -0.33159,0.125057 -0.13263,0.125057 -0.17053,0.375171 l -0.34106,-0.06063 q 0.0625,-0.34296 0.28422,-0.530546 0.22169,-0.18948 0.55139,-0.18948 0.22737,0 0.41875,0.09853 0.19137,0.09663 0.2918,0.265272 0.10232,0.168638 0.10232,0.358118 0,0.180007 -0.0966,0.327802 -0.0966,0.147794 -0.28611,0.234955 0.24632,0.05684 0.38275,0.236851 0.13642,0.178112 0.13642,0.447174 0,0.363802 -0.26527,0.617706 -0.26527,0.252009 -0.67076,0.252009 -0.3657,0 -0.60823,-0.217902 -0.24064,-0.217903 -0.27475,-0.564652 z m 1.80052,10.257974 v 0.327801 h -1.83606 q -0.004,-0.123162 0.0398,-0.236851 0.0701,-0.187585 0.22359,-0.369487 0.15537,-0.181901 0.44717,-0.420646 0.45286,-0.371382 0.61202,-0.58739 0.15917,-0.217902 0.15917,-0.411172 0,-0.202744 -0.1459,-0.341065 -0.14401,-0.140216 -0.37707,-0.140216 -0.24633,0 -0.39412,0.147795 -0.1478,0.147795 -0.14969,0.409278 l -0.35054,-0.036 q 0.036,-0.392225 0.27096,-0.596864 0.23495,-0.206534 0.63097,-0.206534 0.3998,0 0.63286,0.221693 0.23306,0.221692 0.23306,0.549493 0,0.166743 -0.0682,0.327801 -0.0682,0.161059 -0.22738,0.33917 -0.15726,0.178112 -0.52486,0.48886 -0.30695,0.257693 -0.39412,0.350539 -0.0872,0.09095 -0.144,0.183796 z m 0.009,10.543779 h -0.34107 v -2.17335 q -0.12316,0.11748 -0.32401,0.23496 -0.19895,0.11748 -0.35812,0.17622 v -0.3297 q 0.28612,-0.13453 0.50023,-0.32591 0.21412,-0.19137 0.30317,-0.37138 h 0.2198 z m -55.8987,13.98294 v -0.34296 h 1.047827 v 0.34296 z m 1.330153,0.10611 0.358118,-0.0303 q 0.03979,0.26148 0.183796,0.39412 0.1459,0.13074 0.350539,0.13074 0.246324,0 0.416857,-0.18569 0.170532,-0.18569 0.170532,-0.49265 0,-0.2918 -0.164848,-0.46044 -0.162953,-0.16863 -0.428226,-0.16863 -0.164848,0 -0.297484,0.0758 -0.132636,0.0739 -0.208428,0.19327 l -0.320222,-0.0417 0.269062,-1.42678 h 1.381312 v 0.3259 h -1.10846 l -0.14969,0.74655 q 0.250114,-0.17432 0.524861,-0.17432 0.363803,0 0.613917,0.25201 0.250114,0.25201 0.250114,0.64802 0,0.37707 -0.219797,0.65182 -0.267168,0.33727 -0.7295,0.33727 -0.378961,0 -0.619601,-0.21222 -0.238746,-0.21221 -0.272852,-0.56275 z m 8.669714,-0.0898 v -0.34296 h 1.047826 v 0.34296 z m 2.423455,0.83372 V 119.278 h -1.205096 v -0.31264 l 1.267624,-1.80007 h 0.278536 v 1.80007 h 0.375172 v 0.31264 h -0.375172 v 0.66508 z m 0,-0.97772 v -1.25247 l -0.869716,1.25247 z m 7.602629,0.17472 v -0.34296 h 1.047827 v 0.34296 z m 1.332048,0.10042 0.341065,-0.0455 q 0.05874,0.2899 0.198954,0.41875 0.142111,0.12695 0.344855,0.12695 0.24064,0 0.405488,-0.16674 0.166743,-0.16674 0.166743,-0.41307 0,-0.23495 -0.153479,-0.38654 -0.15348,-0.15348 -0.39033,-0.15348 -0.09663,0 -0.24064,0.0379 l 0.0379,-0.29938 q 0.03411,0.004 0.05495,0.004 0.217903,0 0.392225,-0.11369 0.174322,-0.11369 0.174322,-0.35054 0,-0.18758 -0.126952,-0.31075 -0.126952,-0.12316 -0.327801,-0.12316 -0.198955,0 -0.331591,0.12506 -0.132637,0.12506 -0.170533,0.37517 l -0.341064,-0.0606 q 0.06253,-0.34296 0.28422,-0.53055 0.221692,-0.18948 0.551388,-0.18948 0.227377,0 0.418752,0.0985 0.191375,0.0966 0.2918,0.26527 0.10232,0.16864 0.10232,0.35812 0,0.18001 -0.09664,0.3278 -0.09664,0.1478 -0.286116,0.23496 0.246325,0.0568 0.382751,0.23685 0.136425,0.17811 0.136425,0.44717 0,0.3638 -0.265272,0.61771 -0.265273,0.25201 -0.670761,0.25201 -0.365697,0 -0.608232,-0.2179 -0.24064,-0.21791 -0.274747,-0.56466 z m 8.604522,-0.10042 v -0.34296 h 1.047827 v 0.34296 z m 3.122638,0.50591 v 0.3278 h -1.836066 q -0.0038,-0.12316 0.03979,-0.23685 0.07011,-0.18758 0.223587,-0.36948 0.155374,-0.18191 0.447174,-0.42065 0.452858,-0.37138 0.612022,-0.58739 0.159163,-0.2179 0.159163,-0.41117 0,-0.20275 -0.1459,-0.34107 -0.144005,-0.14021 -0.377066,-0.14021 -0.246325,0 -0.394119,0.14779 -0.147795,0.1478 -0.14969,0.40928 l -0.350539,-0.036 q 0.036,-0.39223 0.270957,-0.59687 0.234956,-0.20653 0.63097,-0.20653 0.399804,0 0.632865,0.22169 0.233061,0.22169 0.233061,0.5495 0,0.16674 -0.06821,0.3278 -0.06821,0.16106 -0.227377,0.33917 -0.157268,0.17811 -0.52486,0.48886 -0.306959,0.25769 -0.39412,0.35054 -0.08716,0.0909 -0.144005,0.18379 z m 7.235302,-0.53477 v -0.34296 h 1.047827 v 0.34296 z m 2.614831,0.83371 h -0.341065 v -2.17334 q -0.123162,0.11748 -0.324012,0.23496 -0.198954,0.11747 -0.358118,0.17621 v -0.32969 q 0.286116,-0.13453 0.500229,-0.32591 0.214113,-0.19138 0.303168,-0.37138 h 0.219798 z m 57.632578,-0.76364 0.35812,-0.0303 q 0.0398,0.26148 0.18379,0.39411 0.1459,0.13075 0.35054,0.13075 0.24633,0 0.41686,-0.18569 0.17053,-0.1857 0.17053,-0.49265 0,-0.2918 -0.16485,-0.46044 -0.16295,-0.16864 -0.42822,-0.16864 -0.16485,0 -0.29749,0.0758 -0.13263,0.0739 -0.20843,0.19327 l -0.32022,-0.0417 0.26906,-1.42679 h 1.38132 v 0.32591 h -1.10846 l -0.14969,0.74655 q 0.25011,-0.17432 0.52486,-0.17432 0.3638,0 0.61391,0.25201 0.25012,0.25201 0.25012,0.64802 0,0.37707 -0.2198,0.65181 -0.26717,0.33728 -0.7295,0.33728 -0.37896,0 -0.6196,-0.21222 -0.23875,-0.21222 -0.27285,-0.56276 z m -8.8209,0.74998 v -0.66508 h -1.2051 v -0.31264 l 1.26763,-1.80007 h 0.27854 v 1.80007 h 0.37517 v 0.31264 h -0.37517 v 0.66508 z m 0,-0.97772 v -1.25247 l -0.86971,1.25247 z m -11.0951,0.24443 0.34107,-0.0455 q 0.0587,0.28991 0.19895,0.41875 0.14211,0.12696 0.34485,0.12696 0.24064,0 0.40549,-0.16675 0.16675,-0.16674 0.16675,-0.41306 0,-0.23496 -0.15348,-0.38654 -0.15348,-0.15348 -0.39033,-0.15348 -0.0966,0 -0.24064,0.0379 l 0.0379,-0.29938 q 0.0341,0.004 0.055,0.004 0.2179,0 0.39223,-0.11369 0.17432,-0.11368 0.17432,-0.35053 0,-0.18759 -0.12695,-0.31075 -0.12696,-0.12316 -0.3278,-0.12316 -0.19896,0 -0.3316,0.12505 -0.13263,0.12506 -0.17053,0.37517 l -0.34106,-0.0606 q 0.0625,-0.34296 0.28422,-0.53055 0.22169,-0.18948 0.55139,-0.18948 0.22737,0 0.41875,0.0985 0.19137,0.0966 0.2918,0.26528 0.10232,0.16863 0.10232,0.35811 0,0.18001 -0.0966,0.32781 -0.0966,0.14779 -0.28611,0.23495 0.24632,0.0568 0.38275,0.23685 0.13642,0.17811 0.13642,0.44718 0,0.3638 -0.26527,0.6177 -0.26527,0.25201 -0.67076,0.25201 -0.3657,0 -0.60823,-0.2179 -0.24064,-0.2179 -0.27475,-0.56465 z m -8.19074,0.40549 v 0.3278 H 1.21863 q -0.004,-0.12317 0.0398,-0.23685 0.0701,-0.18759 0.22358,-0.36949 0.15538,-0.1819 0.44718,-0.42065 0.45285,-0.37138 0.61202,-0.58739 0.15916,-0.2179 0.15916,-0.41117 0,-0.20274 -0.1459,-0.34106 -0.144,-0.14022 -0.37706,-0.14022 -0.24633,0 -0.39412,0.14779 -0.1478,0.1478 -0.14969,0.40928 l -0.35054,-0.036 q 0.036,-0.39222 0.27095,-0.59686 0.23496,-0.20654 0.63097,-0.20654 0.39981,0 0.63287,0.2217 0.23306,0.22169 0.23306,0.54949 0,0.16674 -0.0682,0.3278 -0.0682,0.16106 -0.22738,0.33917 -0.15727,0.17811 -0.52486,0.48886 -0.30696,0.25769 -0.39412,0.35054 -0.0872,0.0909 -0.144,0.1838 z m -10.60739,0.35721 h -0.34107 v -2.17334 q -0.12316,0.11747 -0.32401,0.23495 -0.19895,0.11748 -0.35812,0.17622 v -0.3297 q 0.28612,-0.13453 0.50023,-0.3259 0.21411,-0.19138 0.30317,-0.37138 h 0.2198 z" />
        </g>
      </g>
    </g>
  </g>
</svg>
